<svg width="100" height="100" viewBox="0 0 100 100" xmlns="http://www.w3.org/2000/svg">
  <defs>
    <pattern id="sparkles" x="0" y="0" width="60" height="60" patternUnits="userSpaceOnUse">
      <path d="M30 10 L32 18 L40 20 L32 22 L30 30 L28 22 L20 20 L28 18 Z" fill="#ec4899" opacity="0.08"/>
      <path d="M50 40 L51 45 L56 46 L51 47 L50 52 L49 47 L44 46 L49 45 Z" fill="#ec4899" opacity="0.06"/>
      <path d="M10 50 L11 54 L15 55 L11 56 L10 60 L9 56 L5 55 L9 54 Z" fill="#ec4899" opacity="0.05"/>
      <circle cx="45" cy="15" r="1" fill="#ec4899" opacity="0.04"/>
      <circle cx="15" cy="35" r="1.5" fill="#ec4899" opacity="0.03"/>
    </pattern>
  </defs>
  <rect width="100" height="100" fill="url(#sparkles)"/>
</svg>
