<svg width="100" height="100" viewBox="0 0 100 100" xmlns="http://www.w3.org/2000/svg">
  <defs>
    <pattern id="wavefield" x="0" y="0" width="60" height="60" patternUnits="userSpaceOnUse">
      <!-- Sine wave lines — interference pattern -->
      <path d="M0 15 Q7.5 5 15 15 Q22.5 25 30 15 Q37.5 5 45 15 Q52.5 25 60 15" stroke="#14b8a6" stroke-width="0.25" fill="none" opacity="0.12"/>
      <path d="M0 30 Q7.5 20 15 30 Q22.5 40 30 30 Q37.5 20 45 30 Q52.5 40 60 30" stroke="#14b8a6" stroke-width="0.2" fill="none" opacity="0.08"/>
      <path d="M0 45 Q7.5 35 15 45 Q22.5 55 30 45 Q37.5 35 45 45 Q52.5 55 60 45" stroke="#14b8a6" stroke-width="0.15" fill="none" opacity="0.06"/>
      <circle cx="30" cy="30" r="6" stroke="#14b8a6" stroke-width="0.15" fill="none" opacity="0.06"/>
      <circle cx="30" cy="30" r="3" stroke="#14b8a6" stroke-width="0.1" fill="none" opacity="0.04"/>
    </pattern>
  </defs>
  <rect width="100" height="100" fill="url(#wavefield)"/>
</svg>
